<?xml version="1.0" encoding="UTF-8"?>
<svg width="128" height="128" version="1.1" viewBox="0 0 33.867 33.867" xmlns="http://www.w3.org/2000/svg" xmlns:cc="http://creativecommons.org/ns#" xmlns:dc="http://purl.org/dc/elements/1.1/" xmlns:osb="http://www.openswatchbook.org/uri/2009/osb" xmlns:rdf="http://www.w3.org/1999/02/22-rdf-syntax-ns#" xmlns:xlink="http://www.w3.org/1999/xlink">
 <defs>
  <linearGradient id="linearGradient871">
   <stop stop-opacity=".5" offset="0"/>
   <stop stop-opacity=".1" offset=".5"/>
   <stop stop-opacity=".5" offset="1"/>
  </linearGradient>
  <linearGradient id="linearGradient904" x1="142" x2="238" y1="74.998" y2="74.998" gradientTransform="matrix(.26458 0 0 .26458 123.45 54.013)" gradientUnits="userSpaceOnUse" xlink:href="#linearGradient871"/>
  <linearGradient id="linearGradient912" x1="157.72" x2="189.71" y1="58.908" y2="58.908" gradientUnits="userSpaceOnUse" xlink:href="#linearGradient871"/>
  <linearGradient id="linearGradient1026" x1="195.81" x2="197.92" y1="69.668" y2="69.668" gradientTransform="translate(-11.506 4.4716)" gradientUnits="userSpaceOnUse" xlink:href="#linearGradient871"/>
  <linearGradient id="linearGradient1030" x1="195.81" x2="197.92" y1="69.668" y2="69.668" gradientTransform="matrix(-1 0 0 1 358.94 4.4716)" gradientUnits="userSpaceOnUse" xlink:href="#linearGradient871"/>
  <linearGradient id="linearGradient1043" x1="146.99" x2="161.99" y1="83.478" y2="83.478" gradientTransform="matrix(.26458 0 0 .26458 147.53 49.338)" gradientUnits="userSpaceOnUse" xlink:href="#linearGradient871"/>
  <linearGradient id="linearGradient1047" x1="146.99" x2="161.99" y1="83.478" y2="83.478" gradientTransform="matrix(-.26458 0 0 .26458 199.91 49.338)" gradientUnits="userSpaceOnUse" xlink:href="#linearGradient871"/>
  <linearGradient id="linearGradient885" x1="144.82" x2="154.08" y1="51.721" y2="51.721" gradientTransform="translate(16.728 4.9575)" gradientUnits="userSpaceOnUse">
   <stop stop-opacity=".4" offset="0"/>
   <stop stop-opacity=".1" offset=".5"/>
   <stop stop-opacity=".5" offset="1"/>
  </linearGradient>
  <linearGradient id="linearGradient889" x1="144.82" x2="154.08" y1="51.721" y2="51.721" gradientTransform="matrix(-1 0 0 1 330.71 4.9575)" gradientUnits="userSpaceOnUse">
   <stop stop-opacity=".4" offset="0"/>
   <stop stop-opacity=".1" offset=".5"/>
   <stop stop-opacity=".5" offset="1"/>
  </linearGradient>
 </defs>
 <metadata>
  <rdf:RDF>
   <cc:Work rdf:about="">
    <dc:format>image/svg+xml</dc:format>
    <dc:type rdf:resource="http://purl.org/dc/dcmitype/StillImage"/>
    <dc:title/>
   </cc:Work>
  </rdf:RDF>
 </metadata>
 <g transform="translate(-156.79 -48.192)">
  <path d="m173.69 50.044a15.994 16.404 0 0 0-15.965 16.404h1.8056a14.188 14.552 0 0 1 14.08-14.552 14.188 14.552 0 0 1 0.10852 0 14.188 14.552 0 0 1 14.188 14.552h1.8061a15.994 16.404 0 0 0-15.994-16.404 15.994 16.404 0 0 0-0.0289 0z" fill="#3d3846" stroke-linecap="round" stroke-width=".037717"/>
  <path d="m173.61 51.367a14.188 14.552 0 0 0-14.079 14.552h-1.7973a15.994 16.404 0 0 0-8e-3 0.52917h1.8056a14.188 14.552 0 0 1 14.08-14.552 14.188 14.552 0 0 1 0.10852 0 14.188 14.552 0 0 1 14.188 14.552h1.8061a15.994 16.404 0 0 0-8e-3 -0.52917h-1.7978a14.188 14.552 0 0 0-14.188-14.552 14.188 14.552 0 0 0-0.10852 0 14.188 14.552 0 0 1-5.2e-4 0z" fill="url(#linearGradient912)" stroke-linecap="round" stroke-width=".037717"/>
  <g>
   <path d="m162.25 48.457s-2.7703 6.254 2.6891 12.965l5.8685-2.7602c-7.9486-3.3925-8.5576-10.204-8.5576-10.204z" fill="#c01c28"/>
   <path d="m161.56 51.936c-0.10501 2.4408 0.46065 5.8972 3.3796 9.4852l5.8684-2.76c-0.39365-0.16801-0.76447-0.34666-1.1229-0.5302l-4.7454 2.2319c-2.5193-3.0967-3.2844-6.0943-3.3796-8.4269z" fill="url(#linearGradient885)"/>
   <path d="m185.19 48.457s2.7703 6.254-2.6891 12.965l-5.8685-2.7602c7.9486-3.3925 8.5576-10.204 8.5576-10.204z" fill="#c01c28"/>
   <path d="m185.88 51.936c0.10501 2.4408-0.46065 5.8972-3.3796 9.4852l-5.8684-2.76c0.39365-0.16801 0.76447-0.34666 1.1229-0.5302l4.7454 2.2319c2.5193-3.0967 3.2844-6.0943 3.3796-8.4269z" fill="url(#linearGradient889)"/>
   <circle transform="rotate(12.584)" cx="184.31" cy="28.296" r="12.7" fill="#e01b24"/>
   <path d="m161.03 67.241a12.7 12.7 0 0 0 9.9224 12.925 12.7 12.7 0 0 0 15.162-9.6284 12.7 12.7 0 0 0 0.29403-3.2949 12.7 12.7 0 0 1-0.29403 2.2366 12.7 12.7 0 0 1-15.162 9.6284 12.7 12.7 0 0 1-9.9224-11.867z" fill="url(#linearGradient904)"/>
   <circle cx="172.13" cy="69.888" r=".79375" opacity=".4"/>
   <circle cx="175.31" cy="69.888" r=".79375" opacity=".4"/>
  </g>
  <path d="m181.92 64.332c0 1.8995-1.5395 3.4396-3.4396 3.4396-1.8995 0-3.4396-1.5401-3.4396-3.4396 0-1.8995 1.5401-3.4396 3.4396-3.4396 1.9001 0 3.4396 1.5401 3.4396 3.4396z" fill="#f6f5f4"/>
  <g>
   <g>
    <circle cx="178.22" cy="63.273" r="1.5875" fill="#241f31"/>
    <path d="m172.4 64.332c0 1.8995-1.5395 3.4396-3.4396 3.4396-1.8995 0-3.4396-1.5401-3.4396-3.4396 0-1.8995 1.5401-3.4396 3.4396-3.4396 1.9001 0 3.4396 1.5401 3.4396 3.4396z" fill="#f6f5f4"/>
    <circle cx="168.69" cy="63.273" r="1.5875" fill="#241f31"/>
   </g>
   <path d="m169.95 71.211c-3.1753 0.04728-2.4014 1.419-2.9983 2.5048-0.29211 0.53135 0.422-0.06077 1.2252-0.80047 1.263 1.9524 3.5805 3.7996 7.6435 2.3347-3.622-0.25777-5.8309-1.5312-7.1556-2.7967 0.66518-0.6314 1.2852-1.2423 1.2852-1.2423z" opacity=".4"/>
   <path d="m161.02 60.204v15.135s-0.25743-0.09764-0.39066-0.13303c-0.65036-0.17255-1.39-0.07614-1.9848-0.38276-0.32991-0.17009-0.60935-0.45083-0.79371-0.76449-0.26875-0.45726-0.3681-0.83192-0.44542-1.3501-0.20943-1.4036-0.34842-2.7238-0.35396-4.6762v-0.5219c6e-3 -1.9524 0.14453-3.273 0.35396-4.6767 0.0773-0.51818 0.17667-0.89233 0.44542-1.3496 0.18436-0.31367 0.4638-0.5944 0.79371-0.7645 0.59475-0.30662 1.3344-0.21021 1.9848-0.38276 0.13323-0.03538 0.39066-0.13302 0.39066-0.13302z" fill="#3d3846"/>
   <path d="m162.07 59.834c-0.34403 5.04e-4 -1.0521 0.37002-1.0521 0.37002v15.135s0.7081 0.36951 1.0521 0.37002c0.34403 5.11e-4 0.54179-0.12749 0.71262-0.43627 0.17083-0.30878 0.35792-0.67862 0.35192-1.8119l-5.2e-4 -0.36135h5.2e-4v-10.656h-5.2e-4l5.2e-4 -0.36135c6e-3 -1.1332-0.18109-1.5031-0.35192-1.8119-0.17083-0.30878-0.36859-0.43678-0.71262-0.43627z" fill="#9a9996"/>
   <path d="m186.42 60.204v15.135s0.25743-0.09764 0.39066-0.13303c0.65036-0.17255 1.39-0.07614 1.9848-0.38276 0.32991-0.17009 0.60935-0.45083 0.79371-0.76449 0.26875-0.45726 0.3681-0.83192 0.44542-1.3501 0.20943-1.4036 0.34842-2.7238 0.35396-4.6762v-0.5219c-6e-3 -1.9524-0.14453-3.273-0.35396-4.6767-0.0773-0.51818-0.17667-0.89233-0.44542-1.3496-0.18436-0.31367-0.4638-0.5944-0.79371-0.7645-0.59475-0.30662-1.3344-0.21021-1.9848-0.38276-0.13323-0.03538-0.39066-0.13302-0.39066-0.13302z" fill="#3d3846"/>
   <path d="m185.37 59.834c0.34403 5.04e-4 1.0521 0.37002 1.0521 0.37002v15.135s-0.7081 0.36951-1.0521 0.37002c-0.34403 5.11e-4 -0.54179-0.12749-0.71262-0.43627-0.17083-0.30878-0.35792-0.67862-0.35192-1.8119l5.2e-4 -0.36135h-5.2e-4v-10.656h5.2e-4l-5.2e-4 -0.36135c-6e-3 -1.1332 0.18109-1.5031 0.35192-1.8119 0.17083-0.30878 0.36859-0.43678 0.71262-0.43627z" fill="#9a9996"/>
   <path d="m184.3 72.57v0.36122l5.1e-4 -0.36122zm0 0.36122v0.16795h5.1e-4l-5.1e-4 0.36122c-6e-3 1.1332 0.18108 1.5035 0.35191 1.8123 0.17083 0.30878 0.36859 0.43666 0.71262 0.43615 0.34403-5.04e-4 1.0521-0.37 1.0521-0.37v-0.52917s-0.7081 0.3695-1.0521 0.37c-0.34403 5.11e-4 -0.54179-0.12737-0.71262-0.43615-0.17083-0.30878-0.35791-0.67905-0.35191-1.8123z" fill="url(#linearGradient1026)"/>
   <path d="m163.13 72.57v0.36122l-5.1e-4 -0.36122zm0 0.36122v0.16795h-5.1e-4l5.1e-4 0.36122c6e-3 1.1332-0.18108 1.5035-0.35191 1.8123-0.17083 0.30878-0.36859 0.43666-0.71262 0.43615-0.34403-5.04e-4 -1.0521-0.37-1.0521-0.37v-0.52917s0.7081 0.3695 1.0521 0.37c0.34403 5.11e-4 0.54179-0.12737 0.71262-0.43615 0.17083-0.30878 0.35791-0.67905 0.35191-1.8123z" fill="url(#linearGradient1030)"/>
   <path d="m190.39 67.51c-6e-3 1.9481-0.14483 3.2672-0.35398 4.669-0.0773 0.51818-0.1767 0.89253-0.44545 1.3498-0.18436 0.31366-0.46384 0.59472-0.79375 0.76481-0.59475 0.30662-1.334 0.21038-1.9844 0.38292-0.13323 0.03539-0.39067 0.13281-0.39067 0.13281v0.52917s0.25744-0.09742 0.39067-0.13281c0.65036-0.17255 1.3896-0.07631 1.9844-0.38292 0.32991-0.17009 0.60939-0.45115 0.79375-0.76481 0.26875-0.45726 0.36813-0.83161 0.44545-1.3498 0.20943-1.4036 0.34844-2.7238 0.35398-4.6762z" fill="url(#linearGradient1043)"/>
   <path d="m157.05 67.51c6e-3 1.9481 0.14483 3.2672 0.35398 4.669 0.0773 0.51818 0.1767 0.89253 0.44545 1.3498 0.18436 0.31366 0.46384 0.59472 0.79375 0.76481 0.59475 0.30662 1.334 0.21038 1.9844 0.38292 0.13323 0.03539 0.39067 0.13281 0.39067 0.13281v0.52917s-0.25744-0.09742-0.39067-0.13281c-0.65036-0.17255-1.3896-0.07631-1.9844-0.38292-0.32991-0.17009-0.60939-0.45115-0.79375-0.76481-0.26875-0.45726-0.36813-0.83161-0.44545-1.3498-0.20943-1.4036-0.34844-2.7238-0.35398-4.6762z" fill="url(#linearGradient1047)"/>
  </g>
 </g>
</svg>
