<?xml version="1.0" encoding="UTF-8"?>
<svg width="128" height="128" version="1.1" viewBox="0 0 33.867 33.867" xmlns="http://www.w3.org/2000/svg" xmlns:cc="http://creativecommons.org/ns#" xmlns:dc="http://purl.org/dc/elements/1.1/" xmlns:osb="http://www.openswatchbook.org/uri/2009/osb" xmlns:rdf="http://www.w3.org/1999/02/22-rdf-syntax-ns#">
 <metadata>
  <rdf:RDF>
   <cc:Work rdf:about="">
    <dc:format>image/svg+xml</dc:format>
    <dc:type rdf:resource="http://purl.org/dc/dcmitype/StillImage"/>
    <dc:title/>
   </cc:Work>
  </rdf:RDF>
 </metadata>
 <g transform="translate(-156.79 -48.192)">
  <path d="m173.69 50.573a15.994 16.404 0 0 0-15.965 16.404h1.8056a14.188 14.552 0 0 1 14.08-14.552 14.188 14.552 0 0 1 0.10852 0 14.188 14.552 0 0 1 14.188 14.552h1.8061a15.994 16.404 0 0 0-15.994-16.404 15.994 16.404 0 0 0-0.0289 0z" opacity=".3" stroke-linecap="round" stroke-width=".037717"/>
  <path d="m173.69 50.044a15.994 16.404 0 0 0-15.965 16.404h1.8056a14.188 14.552 0 0 1 14.08-14.552 14.188 14.552 0 0 1 0.10852 0 14.188 14.552 0 0 1 14.188 14.552h1.8061a15.994 16.404 0 0 0-15.994-16.404 15.994 16.404 0 0 0-0.0289 0z" fill="#3d3846" stroke-linecap="round" stroke-width=".037717"/>
  <g>
   <path d="m173.69 50.044a15.994 16.404 0 0 0-15.965 16.404h8e-3a15.994 16.404 0 0 1 15.957-15.875 15.994 16.404 0 0 1 0.0289 0 15.994 16.404 0 0 1 15.986 15.875h8e-3a15.994 16.404 0 0 0-15.994-16.404 15.994 16.404 0 0 0-0.0289 0z" fill="#fff" opacity=".1" stroke-linecap="round" stroke-width=".037717"/>
   <path d="m162.25 48.986s-2.7703 6.254 2.6891 12.965l5.8685-2.7602c-7.9486-3.3925-8.5576-10.204-8.5576-10.204z" opacity=".2"/>
   <path d="m162.25 48.457s-2.7703 6.254 2.6891 12.965l5.8685-2.7602c-7.9486-3.3925-8.5576-10.204-8.5576-10.204z" fill="#c01c28"/>
   <path d="m185.19 48.986s2.7703 6.254-2.6891 12.965l-5.8685-2.7602c7.9486-3.3925 8.5576-10.204 8.5576-10.204z" opacity=".2"/>
   <path d="m185.19 48.457s2.7703 6.254-2.6891 12.965l-5.8685-2.7602c7.9486-3.3925 8.5576-10.204 8.5576-10.204z" fill="#c01c28"/>
   <path transform="matrix(.26458 0 0 .26458 156.79 48.192)" d="m107.34 1s-2.3018 25.746-32.344 38.568l2.166 1.0176c27.975-13.105 30.178-37.586 30.178-37.586s2.4572 5.5725 2.6387 14.197c0.20388-9.7558-2.6387-16.197-2.6387-16.197z" fill="#fffefe" opacity=".1"/>
   <circle transform="rotate(12.584)" cx="184.43" cy="28.813" r="12.7" opacity=".2"/>
   <path d="m162.25 48.457s0.609 6.812 8.5576 10.205l-0.57309 0.26924c-7.4018-3.4675-7.9845-9.9446-7.9845-9.9446s-0.65013 1.4744-0.69815 3.7564c-0.0539-2.5812 0.69815-4.2855 0.69815-4.2855z" fill="#fffefe" opacity=".1"/>
   <circle transform="rotate(12.584)" cx="184.31" cy="28.296" r="12.7" fill="#e01b24"/>
   <path d="m173.67 55.071a12.7 12.7 0 0 0-12.345 9.9332 12.7 12.7 0 0 0-0.30179 3.0272 12.7 12.7 0 0 1 0.30179-2.498 12.7 12.7 0 0 1 15.162-9.6284 12.7 12.7 0 0 1 9.9301 12.135 12.7 12.7 0 0 0-9.9301-12.664 12.7 12.7 0 0 0-2.8169-0.30489z" fill="#fff" opacity=".1"/>
   <g>
    <circle cx="172.13" cy="70.417" r=".79375" opacity=".3"/>
    <circle cx="175.31" cy="70.417" r=".79375" opacity=".3"/>
    <circle cx="178.48" cy="65.39" r="3.4396" opacity=".2"/>
    <circle cx="178.48" cy="64.861" r="3.4396" fill="#f6f5f4"/>
    <circle cx="168.96" cy="65.39" r="3.4396" opacity=".2"/>
    <circle cx="168.96" cy="64.861" r="3.4396" fill="#f6f5f4"/>
    <circle cx="178.22" cy="63.802" r="1.5875" fill="#241f31"/>
    <circle cx="168.69" cy="63.802" r="1.5875" fill="#241f31"/>
    <path transform="matrix(.26458 0 0 .26458 156.79 48.192)" d="m69.949 81a3 3 0 0 0-2.9492 3 3 3 0 0 0 0.042969 0.50195 3 3 0 0 1 2.957-2.502 3 3 0 0 1 2.957 2.498 3 3 0 0 0 0.042969-0.49805 3 3 0 0 0-3-3 3 3 0 0 0-0.050781 0z" opacity=".3"/>
    <path d="m172.12 69.623a0.79375 0.79375 0 0 0-0.78031 0.79375 0.79375 0.79375 0 0 0 0.0114 0.13281 0.79375 0.79375 0 0 1 0.78238-0.66198 0.79375 0.79375 0 0 1 0.78238 0.66094 0.79375 0.79375 0 0 0 0.0114-0.13178 0.79375 0.79375 0 0 0-0.79375-0.79375 0.79375 0.79375 0 0 0-0.0134 0z" opacity=".3"/>
   </g>
  </g>
  <g transform="translate(-3.3391 -25.538)">
   <path d="m188.71 85.901c-0.34403-5.19e-4 -0.54174 0.12927-0.71257 0.44235-0.17083 0.31308-0.3579 0.68807-0.3519 1.8371l5.2e-4 0.36639h-5.2e-4v10.583h5.2e-4l-5.2e-4 0.3669c-6e-3 1.149 0.18107 1.524 0.3519 1.8371s0.36854 0.44236 0.71257 0.44184c0.34403-5.1e-4 1.0521-0.37466 1.0521-0.37466v0.11059s0.25742-0.099 0.39065-0.13488c0.65036-0.17495 1.39-0.0772 1.9848-0.38809 0.32991-0.17245 0.60935-0.45711 0.79371-0.77514 0.26875-0.46363 0.3681-0.84351 0.44542-1.3689 0.20943-1.4232 0.34843-2.7617 0.35397-4.7413v-0.52917c-6e-3 -1.9796-0.14454-3.3186-0.35397-4.7418-0.0773-0.5254-0.17667-0.90476-0.44542-1.3684-0.18436-0.31804-0.4638-0.60268-0.79371-0.77515-0.59475-0.31089-1.3344-0.21314-1.9848-0.38809-0.13323-0.03587-0.39065-0.13488-0.39065-0.13488v0.11007s-0.70804-0.37466-1.0521-0.37517z" opacity=".2"/>
   <path d="m189.76 85.637v15.346s0.25743-0.099 0.39066-0.13488c0.65036-0.17495 1.39-0.0772 1.9848-0.38809 0.32991-0.17246 0.60935-0.45711 0.79371-0.77514 0.26875-0.46363 0.3681-0.84351 0.44542-1.3689 0.20943-1.4232 0.34842-2.7617 0.35396-4.7413v-0.52917c-6e-3 -1.9796-0.14453-3.3186-0.35396-4.7418-0.0773-0.5254-0.17667-0.90476-0.44542-1.3684-0.18436-0.31804-0.4638-0.60269-0.79371-0.77515-0.59475-0.31089-1.3344-0.21314-1.9848-0.38809-0.13323-0.03587-0.39066-0.13488-0.39066-0.13488z" fill="#3d3846"/>
   <path d="m188.71 85.372c-0.34403-5.19e-4 -0.54174 0.12927-0.71257 0.44235-0.17083 0.31308-0.35789 0.68807-0.35189 1.8371l5.1e-4 0.36638h-5.1e-4v10.583h5.1e-4l-5.1e-4 0.3669c-6e-3 1.149 0.18106 1.524 0.35189 1.8371s0.36854 0.44235 0.71257 0.44183c0.34403-5.1e-4 1.0521-0.37465 1.0521-0.37465v-15.125s-0.70804-0.37466-1.0521-0.37517z" fill="#9a9996"/>
   <path d="m188.71 85.372c-0.34404-5.19e-4 -0.54175 0.12927-0.71257 0.44235-0.17083 0.31308-0.3579 0.68807-0.3519 1.8371l5.2e-4 0.36639h-5.2e-4v0.16278c-6e-3 -1.149 0.18107-1.524 0.3519-1.8371 0.17082-0.31308 0.36853-0.44287 0.71257-0.44235 0.34403 5.11e-4 1.0521 0.37517 1.0521 0.37517v-0.52917s-0.70804-0.37466-1.0521-0.37517zm-1.0645 2.8086v0.36639h5.2e-4z" fill="#fff" opacity=".2"/>
   <path d="m189.76 85.637v0.52917s0.25743 0.09901 0.39065 0.13488c0.65036 0.17495 1.39 0.0772 1.9848 0.38809 0.32991 0.17246 0.60934 0.45711 0.7937 0.77515 0.26875 0.46363 0.36813 0.84299 0.44542 1.3684 0.20944 1.4232 0.34796 2.7622 0.35396 4.7418v-0.52917c-6e-3 -1.9796-0.14452-3.3186-0.35396-4.7418-0.0773-0.5254-0.17667-0.90476-0.44542-1.3684-0.18436-0.31804-0.46379-0.60269-0.7937-0.77515-0.59476-0.31089-1.3344-0.21314-1.9848-0.38809-0.13322-0.03587-0.39065-0.13488-0.39065-0.13488z" fill="#fff" opacity=".1"/>
  </g>
  <g transform="matrix(-1 0 0 1 350.78 -25.538)">
   <path d="m188.71 85.901c-0.34403-5.19e-4 -0.54174 0.12927-0.71257 0.44235-0.17083 0.31308-0.3579 0.68807-0.3519 1.8371l5.2e-4 0.36639h-5.2e-4v10.583h5.2e-4l-5.2e-4 0.3669c-6e-3 1.149 0.18107 1.524 0.3519 1.8371s0.36854 0.44236 0.71257 0.44184c0.34403-5.1e-4 1.0521-0.37466 1.0521-0.37466v0.11059s0.25742-0.099 0.39065-0.13488c0.65036-0.17495 1.39-0.0772 1.9848-0.38809 0.32991-0.17245 0.60935-0.45711 0.79371-0.77514 0.26875-0.46363 0.3681-0.84351 0.44542-1.3689 0.20943-1.4232 0.34843-2.7617 0.35397-4.7413v-0.52917c-6e-3 -1.9796-0.14454-3.3186-0.35397-4.7418-0.0773-0.5254-0.17667-0.90476-0.44542-1.3684-0.18436-0.31804-0.4638-0.60268-0.79371-0.77515-0.59475-0.31089-1.3344-0.21314-1.9848-0.38809-0.13323-0.03587-0.39065-0.13488-0.39065-0.13488v0.11007s-0.70804-0.37466-1.0521-0.37517z" opacity=".2"/>
   <path d="m189.76 85.637v15.346s0.25743-0.099 0.39066-0.13488c0.65036-0.17495 1.39-0.0772 1.9848-0.38809 0.32991-0.17246 0.60935-0.45711 0.79371-0.77514 0.26875-0.46363 0.3681-0.84351 0.44542-1.3689 0.20943-1.4232 0.34842-2.7617 0.35396-4.7413v-0.52917c-6e-3 -1.9796-0.14453-3.3186-0.35396-4.7418-0.0773-0.5254-0.17667-0.90476-0.44542-1.3684-0.18436-0.31804-0.4638-0.60269-0.79371-0.77515-0.59475-0.31089-1.3344-0.21314-1.9848-0.38809-0.13323-0.03587-0.39066-0.13488-0.39066-0.13488z" fill="#3d3846"/>
   <path d="m188.71 85.372c-0.34403-5.19e-4 -0.54174 0.12927-0.71257 0.44235-0.17083 0.31308-0.35789 0.68807-0.35189 1.8371l5.1e-4 0.36638h-5.1e-4v10.583h5.1e-4l-5.1e-4 0.3669c-6e-3 1.149 0.18106 1.524 0.35189 1.8371s0.36854 0.44235 0.71257 0.44183c0.34403-5.1e-4 1.0521-0.37465 1.0521-0.37465v-15.125s-0.70804-0.37466-1.0521-0.37517z" fill="#9a9996"/>
   <path d="m188.71 85.372c-0.34404-5.19e-4 -0.54175 0.12927-0.71257 0.44235-0.17083 0.31308-0.3579 0.68807-0.3519 1.8371l5.2e-4 0.36639h-5.2e-4v0.16278c-6e-3 -1.149 0.18107-1.524 0.3519-1.8371 0.17082-0.31308 0.36853-0.44287 0.71257-0.44235 0.34403 5.11e-4 1.0521 0.37517 1.0521 0.37517v-0.52917s-0.70804-0.37466-1.0521-0.37517zm-1.0645 2.8086v0.36639h5.2e-4z" fill="#fff" opacity=".2"/>
   <path d="m189.76 85.637v0.52917s0.25743 0.09901 0.39065 0.13488c0.65036 0.17495 1.39 0.0772 1.9848 0.38809 0.32991 0.17246 0.60934 0.45711 0.7937 0.77515 0.26875 0.46363 0.36813 0.84299 0.44542 1.3684 0.20944 1.4232 0.34796 2.7622 0.35396 4.7418v-0.52917c-6e-3 -1.9796-0.14452-3.3186-0.35396-4.7418-0.0773-0.5254-0.17667-0.90476-0.44542-1.3684-0.18436-0.31804-0.46379-0.60269-0.7937-0.77515-0.59476-0.31089-1.3344-0.21314-1.9848-0.38809-0.13322-0.03587-0.39065-0.13488-0.39065-0.13488z" fill="#fff" opacity=".1"/>
  </g>
  <path d="m169.95 71.565c-3.1753 0.04728-2.4014 1.419-2.9983 2.5048-0.29211 0.53135 0.422-0.06077 1.2252-0.80047 1.263 1.9524 3.5805 3.7996 7.6435 2.3347-3.622-0.25777-5.8309-1.5312-7.1556-2.7967 0.66518-0.6314 1.2852-1.2423 1.2852-1.2423z" opacity=".29966"/>
  <path d="m169.95 71.565c-3.1753 0.04728-2.4014 1.419-2.9983 2.5048-0.10728 0.19514-0.0779 0.23786 0.0408 0.17828 0.49788-1.0351-0.0815-2.2821 2.6712-2.4061 0.0552-0.05415 0.28628-0.27699 0.28628-0.27699zm-1.1446 1.371c-0.0709 0.0678-0.0678 0.06684-0.14056 0.13591 1.2446 1.1891 3.2705 2.3848 6.5148 2.7389 0.20894-0.06021 0.42181-0.12776 0.64079-0.20671-3.4991-0.24902-5.6768-1.446-7.0151-2.6681z" opacity=".29966"/>
 </g>
</svg>
