<?xml version="1.0" encoding="UTF-8" standalone="no"?>
<!-- Created with Inkscape (http://www.inkscape.org/) -->

<svg
   inkscape:export-ydpi="96"
   inkscape:export-xdpi="96"
   inkscape:export-filename="Template.png"
   width="192"
   height="152"
   id="svg11300"
   sodipodi:version="0.32"
   inkscape:version="1.3.2 (091e20ef0f, 2023-11-25)"
   sodipodi:docname="de.wagnermartin.Plattenalbum.Source.svg"
   inkscape:output_extension="org.inkscape.output.svg.inkscape"
   version="1.0"
   style="display:inline;enable-background:new"
   viewBox="0 0 192 152"
   xmlns:inkscape="http://www.inkscape.org/namespaces/inkscape"
   xmlns:sodipodi="http://sodipodi.sourceforge.net/DTD/sodipodi-0.dtd"
   xmlns:xlink="http://www.w3.org/1999/xlink"
   xmlns="http://www.w3.org/2000/svg"
   xmlns:svg="http://www.w3.org/2000/svg"
   xmlns:rdf="http://www.w3.org/1999/02/22-rdf-syntax-ns#"
   xmlns:cc="http://creativecommons.org/ns#"
   xmlns:dc="http://purl.org/dc/elements/1.1/">
  <title
     id="title4162">Adwaita Icon Template</title>
  <defs
     id="defs3">
    <linearGradient
       id="linearGradient7"
       inkscape:collect="always">
      <stop
         style="stop-color:#e66100;stop-opacity:1;"
         offset="0"
         id="stop7" />
      <stop
         style="stop-color:#ff7800;stop-opacity:1;"
         offset="0.5"
         id="stop9" />
      <stop
         style="stop-color:#c64600;stop-opacity:1;"
         offset="1"
         id="stop8" />
    </linearGradient>
    <linearGradient
       id="linearGradient4"
       inkscape:collect="always">
      <stop
         style="stop-color:#e66100;stop-opacity:1;"
         offset="0"
         id="stop4" />
      <stop
         style="stop-color:#ff7800;stop-opacity:1;"
         offset="0.5"
         id="stop6" />
      <stop
         style="stop-color:#c64600;stop-opacity:1;"
         offset="1"
         id="stop5" />
    </linearGradient>
    <linearGradient
       id="linearGradient47"
       inkscape:collect="always">
      <stop
         style="stop-color:#ffffff;stop-opacity:0;"
         offset="0"
         id="stop47" />
      <stop
         style="stop-color:#ffffff;stop-opacity:0.25;"
         offset="0.5"
         id="stop49" />
      <stop
         style="stop-color:#ffffff;stop-opacity:0;"
         offset="1"
         id="stop48" />
    </linearGradient>
    <linearGradient
       id="linearGradient25">
      <stop
         style="stop-color:#ffffff;stop-opacity:0;"
         offset="0"
         id="stop17" />
      <stop
         style="stop-color:#ffffff;stop-opacity:0.30000001;"
         offset="0.5"
         id="stop24" />
      <stop
         style="stop-color:#ffffff;stop-opacity:0;"
         offset="1"
         id="stop25" />
    </linearGradient>
    <linearGradient
       y2="236"
       x2="96"
       y1="236"
       x1="32"
       gradientTransform="translate(604.81684,170.58641)"
       gradientUnits="userSpaceOnUse"
       id="linearGradient1099"
       xlink:href="#linearGradient1036" />
    <linearGradient
       id="linearGradient1036">
      <stop
         id="stop1032"
         offset="0"
         style="stop-color:#d5d3cf;stop-opacity:1;" />
      <stop
         id="stop1034"
         offset="1"
         style="stop-color:#f6f5f4;stop-opacity:1" />
    </linearGradient>
    <radialGradient
       r="32"
       fy="-76"
       fx="-244"
       cy="-76"
       cx="-244"
       gradientTransform="matrix(0.88333331,0,0,0.88333331,-460.35018,463.11973)"
       gradientUnits="userSpaceOnUse"
       id="radialGradient1103"
       xlink:href="#linearGradient1069" />
    <linearGradient
       id="linearGradient1069">
      <stop
         id="stop1065"
         offset="0"
         style="stop-color:#d5d3cf;stop-opacity:1" />
      <stop
         id="stop1067-1"
         offset="1"
         style="stop-color:#949390;stop-opacity:1" />
    </linearGradient>
    <linearGradient
       gradientUnits="userSpaceOnUse"
       y2="232"
       x2="64"
       y1="262.5"
       x1="64"
       id="linearGradient1027"
       xlink:href="#linearGradient1025"
       gradientTransform="translate(-470.5864,432.81685)" />
    <linearGradient
       id="linearGradient1025">
      <stop
         id="stop1021"
         offset="0"
         style="stop-color:#9a9996;stop-opacity:1" />
      <stop
         id="stop1023"
         offset="1"
         style="stop-color:#77767b;stop-opacity:1" />
    </linearGradient>
    <inkscape:path-effect
       effect="spiro"
       id="path-effect35304-9"
       is_visible="true" />
    <clipPath
       clipPathUnits="userSpaceOnUse"
       id="clipPath1609-7">
      <path
         sodipodi:nodetypes="cccccc"
         inkscape:connector-curvature="0"
         id="path1611-5"
         d="m 252,116 28,-28 v -8 h -36 v 36 z"
         style="fill:#e74747;stroke:none;stroke-width:0.25px;stroke-linecap:butt;stroke-linejoin:miter;stroke-opacity:1" />
    </clipPath>
    <linearGradient
       id="linearGradient1697">
      <stop
         id="stop1685"
         offset="0"
         style="stop-color:#deddda;stop-opacity:1" />
      <stop
         style="stop-color:#eeeeec;stop-opacity:1"
         offset="0.04545455"
         id="stop1687" />
      <stop
         id="stop1689"
         offset="0.09090909"
         style="stop-color:#deddda;stop-opacity:1" />
      <stop
         style="stop-color:#deddda;stop-opacity:1"
         offset="0.90909094"
         id="stop1691" />
      <stop
         id="stop1693"
         offset="0.95454544"
         style="stop-color:#eeeeec;stop-opacity:1" />
      <stop
         id="stop1695"
         offset="1"
         style="stop-color:#c0bfbc;stop-opacity:1" />
    </linearGradient>
    <clipPath
       clipPathUnits="userSpaceOnUse"
       id="clipPath1289">
      <path
         style="display:inline;opacity:1;vector-effect:none;fill:none;fill-opacity:1;stroke:#000000;stroke-width:4;stroke-linecap:round;stroke-linejoin:round;stroke-miterlimit:4;stroke-dasharray:none;stroke-dashoffset:0;stroke-opacity:1;marker:none;marker-start:none;marker-mid:none;marker-end:none;paint-order:normal;enable-background:new"
         d="m 64,-148 h 64 l 64,-64 64,64 h 192 c 17.728,0 32,14.272 32,32 v 288 c 0,17.728 -14.272,32 -32,32 H 256 l -64,-64 -64,64 H 64 C 46.272,204 32,189.728 32,172 v -288 c 0,-17.728 14.408898,-34.19889 32,-32 z"
         id="path1291"
         inkscape:connector-curvature="0"
         sodipodi:nodetypes="scccsssscccssss" />
    </clipPath>
    <linearGradient
       id="paint3_linear-2-6-5"
       x2="1"
       gradientUnits="userSpaceOnUse"
       gradientTransform="matrix(0,6,-12,0,-64,209.99687)">
      <stop
         stop-color="#C01C27"
         id="stop91-0-7-4" />
      <stop
         offset="1"
         stop-color="#E01B24"
         id="stop93-2-5-7" />
    </linearGradient>
    <clipPath
       clipPathUnits="userSpaceOnUse"
       id="clipPath1609">
      <path
         sodipodi:nodetypes="cccccc"
         inkscape:connector-curvature="0"
         id="path1611"
         d="m 252,116 28,-28 v -8 h -36 v 36 z"
         style="fill:#e74747;stroke:none;stroke-width:0.25px;stroke-linecap:butt;stroke-linejoin:miter;stroke-opacity:1" />
    </clipPath>
    <linearGradient
       xlink:href="#linearGradient25"
       id="linearGradient18"
       x1="51"
       y1="60"
       x2="121"
       y2="60"
       gradientUnits="userSpaceOnUse"
       gradientTransform="rotate(-30,226.66631,-146.37305)" />
    <linearGradient
       id="linearGradient10">
      <stop
         style="stop-color:#ffffff;stop-opacity:0;"
         offset="0"
         id="stop10" />
      <stop
         style="stop-color:#ffffff;stop-opacity:0.30000001;"
         offset="0.5"
         id="stop19" />
      <stop
         style="stop-color:#ffffff;stop-opacity:0;"
         offset="1"
         id="stop18" />
    </linearGradient>
    <linearGradient
       xlink:href="#linearGradient19"
       id="linearGradient21"
       x1="51"
       y1="60"
       x2="121"
       y2="60"
       gradientUnits="userSpaceOnUse"
       gradientTransform="rotate(30,-235.18848,160.06217)" />
    <linearGradient
       id="linearGradient19">
      <stop
         style="stop-color:#000000;stop-opacity:1;"
         offset="0"
         id="stop20" />
      <stop
         style="stop-color:#ffffff;stop-opacity:1;"
         offset="0.5"
         id="stop22" />
      <stop
         style="stop-color:#000000;stop-opacity:1;"
         offset="1"
         id="stop21" />
    </linearGradient>
    <linearGradient
       inkscape:collect="always"
       xlink:href="#linearGradient13"
       id="linearGradient27"
       x1="-12.305662"
       y1="174.18427"
       x2="-6.3056555"
       y2="174.18427"
       gradientUnits="userSpaceOnUse"
       gradientTransform="translate(94.30566,72.81573)" />
    <linearGradient
       id="linearGradient13"
       inkscape:collect="always">
      <stop
         style="stop-color:#f6f5f4;stop-opacity:1;"
         offset="0"
         id="stop23" />
      <stop
         style="stop-color:#ffffff;stop-opacity:1;"
         offset="0.5"
         id="stop27" />
      <stop
         style="stop-color:#dddcd9;stop-opacity:1;"
         offset="1"
         id="stop26" />
    </linearGradient>
    <linearGradient
       inkscape:collect="always"
       xlink:href="#linearGradient41"
       id="linearGradient42"
       x1="8"
       y1="54"
       x2="16"
       y2="54"
       gradientUnits="userSpaceOnUse"
       gradientTransform="translate(4,172)" />
    <linearGradient
       id="linearGradient41"
       inkscape:collect="always">
      <stop
         style="stop-color:#ff7700;stop-opacity:1;"
         offset="0"
         id="stop41" />
      <stop
         style="stop-color:#ffbf70;stop-opacity:1;"
         offset="0.5"
         id="stop43" />
      <stop
         style="stop-color:#ffa348;stop-opacity:1;"
         offset="1"
         id="stop42" />
    </linearGradient>
    <linearGradient
       inkscape:collect="always"
       xlink:href="#linearGradient34"
       id="linearGradient35"
       x1="63.939396"
       y1="118.55944"
       x2="113.9394"
       y2="118.55944"
       gradientUnits="userSpaceOnUse"
       gradientTransform="translate(-25.9394,155.44056)" />
    <linearGradient
       id="linearGradient34"
       inkscape:collect="always">
      <stop
         style="stop-color:#000000;stop-opacity:0;"
         offset="0"
         id="stop34" />
      <stop
         style="stop-color:#000000;stop-opacity:0.25;"
         offset="1"
         id="stop35" />
    </linearGradient>
    <linearGradient
       inkscape:collect="always"
       xlink:href="#linearGradient47"
       id="linearGradient48"
       x1="51"
       y1="231"
       x2="125"
       y2="231"
       gradientUnits="userSpaceOnUse"
       gradientTransform="rotate(-45,88,231)" />
    <linearGradient
       inkscape:collect="always"
       xlink:href="#linearGradient4"
       id="linearGradient5"
       x1="80"
       y1="228"
       x2="88"
       y2="228"
       gradientUnits="userSpaceOnUse"
       gradientTransform="translate(4,6)" />
    <linearGradient
       inkscape:collect="always"
       xlink:href="#linearGradient7"
       id="linearGradient8"
       x1="80"
       y1="242"
       x2="88"
       y2="242"
       gradientUnits="userSpaceOnUse"
       gradientTransform="translate(4)" />
    <linearGradient
       inkscape:collect="always"
       xlink:href="#linearGradient41"
       id="linearGradient6"
       gradientUnits="userSpaceOnUse"
       gradientTransform="translate(4,178)"
       x1="8"
       y1="54"
       x2="16"
       y2="54" />
  </defs>
  <sodipodi:namedview
     stroke="#ef2929"
     fill="#f57900"
     id="base"
     pagecolor="#ffffff"
     bordercolor="#666666"
     borderopacity="0.25490196"
     inkscape:pageopacity="0.0"
     inkscape:pageshadow="2"
     inkscape:zoom="1.9999999"
     inkscape:cx="-19.000001"
     inkscape:cy="112.75001"
     inkscape:current-layer="layer3"
     showgrid="false"
     inkscape:grid-bbox="true"
     inkscape:document-units="px"
     inkscape:showpageshadow="false"
     inkscape:window-width="2560"
     inkscape:window-height="1363"
     inkscape:window-x="0"
     inkscape:window-y="0"
     width="400px"
     height="300px"
     inkscape:snap-nodes="true"
     inkscape:snap-bbox="true"
     objecttolerance="7"
     gridtolerance="12"
     guidetolerance="13"
     inkscape:window-maximized="1"
     inkscape:pagecheckerboard="false"
     showguides="false"
     inkscape:guide-bbox="true"
     inkscape:locked="false"
     inkscape:measure-start="0,0"
     inkscape:measure-end="0,0"
     inkscape:object-nodes="true"
     inkscape:bbox-nodes="true"
     inkscape:snap-global="true"
     inkscape:object-paths="true"
     inkscape:snap-intersection-paths="true"
     inkscape:snap-bbox-edge-midpoints="true"
     inkscape:snap-bbox-midpoints="true"
     showborder="true"
     inkscape:snap-center="true"
     inkscape:snap-object-midpoints="true"
     inkscape:snap-midpoints="true"
     inkscape:snap-smooth-nodes="true"
     inkscape:snap-text-baseline="true"
     borderlayer="true"
     inkscape:deskcolor="#d1d1d1">
    <inkscape:grid
       type="xygrid"
       id="grid5883"
       spacingx="2"
       spacingy="2"
       enabled="true"
       visible="false"
       empspacing="4"
       originx="8"
       originy="8"
       units="px" />
    <sodipodi:guide
       position="72,16"
       orientation="0,1"
       id="guide1073"
       inkscape:locked="false"
       inkscape:label=""
       inkscape:color="rgb(0,0,255)" />
    <sodipodi:guide
       position="20,72"
       orientation="1,0"
       id="guide1075"
       inkscape:locked="false"
       inkscape:label=""
       inkscape:color="rgb(0,0,255)" />
    <sodipodi:guide
       position="72,112"
       orientation="0,1"
       id="guide1099"
       inkscape:locked="false"
       inkscape:label=""
       inkscape:color="rgb(0,0,255)" />
    <sodipodi:guide
       position="72,136"
       orientation="0,1"
       id="guide993"
       inkscape:locked="false"
       inkscape:label=""
       inkscape:color="rgb(0,0,255)" />
    <sodipodi:guide
       position="112,72"
       orientation="1,0"
       id="guide995"
       inkscape:locked="false"
       inkscape:label=""
       inkscape:color="rgb(0,0,255)" />
    <sodipodi:guide
       position="8.0000001,72"
       orientation="1,0"
       id="guide867"
       inkscape:locked="false"
       inkscape:label=""
       inkscape:color="rgb(0,0,255)" />
    <sodipodi:guide
       position="128,72"
       orientation="1,0"
       id="guide869"
       inkscape:locked="false"
       inkscape:label=""
       inkscape:color="rgb(0,0,255)" />
    <sodipodi:guide
       position="72,124"
       orientation="0,1"
       id="guide871"
       inkscape:locked="false"
       inkscape:label=""
       inkscape:color="rgb(0,0,255)" />
    <inkscape:grid
       type="xygrid"
       id="grid873"
       spacingx="1"
       spacingy="1"
       empspacing="8"
       color="#000000"
       opacity="0.49019608"
       empcolor="#000000"
       empopacity="0.08627451"
       dotted="true"
       originx="8"
       originy="8"
       units="px"
       visible="false" />
    <sodipodi:guide
       position="32,72"
       orientation="1,0"
       id="guide877"
       inkscape:locked="false"
       inkscape:label=""
       inkscape:color="rgb(0,0,255)" />
    <sodipodi:guide
       position="124,72"
       orientation="1,0"
       id="guide879"
       inkscape:locked="false"
       inkscape:label=""
       inkscape:color="rgb(0,0,255)" />
    <sodipodi:guide
       position="72,128"
       orientation="0,1"
       id="guide881"
       inkscape:locked="false"
       inkscape:label=""
       inkscape:color="rgb(0,0,255)" />
    <sodipodi:guide
       position="72,20"
       orientation="0,1"
       id="guide883"
       inkscape:locked="false"
       inkscape:label=""
       inkscape:color="rgb(0,0,255)" />
    <sodipodi:guide
       position="16,72"
       orientation="1,0"
       id="guide885"
       inkscape:locked="false"
       inkscape:label=""
       inkscape:color="rgb(0,0,255)" />
    <sodipodi:guide
       position="136,72"
       orientation="1,0"
       id="guide887"
       inkscape:locked="false"
       inkscape:label=""
       inkscape:color="rgb(0,0,255)" />
    <sodipodi:guide
       position="72,8"
       orientation="0,1"
       id="guide897"
       inkscape:locked="false"
       inkscape:label=""
       inkscape:color="rgb(0,0,255)" />
    <sodipodi:guide
       position="72,32"
       orientation="0,1"
       id="guide899"
       inkscape:locked="false"
       inkscape:label=""
       inkscape:color="rgb(0,0,255)" />
    <sodipodi:guide
       position="264,264"
       orientation="-0.70710678,0.70710678"
       id="guide950"
       inkscape:locked="false"
       inkscape:label=""
       inkscape:color="rgb(0,0,255)" />
    <sodipodi:guide
       position="72,72"
       orientation="0.70710678,0.70710678"
       id="guide952"
       inkscape:locked="false"
       inkscape:label=""
       inkscape:color="rgb(0,0,255)" />
  </sodipodi:namedview>
  <metadata
     id="metadata4">
    <rdf:RDF>
      <cc:Work
         rdf:about="">
        <dc:format>image/svg+xml</dc:format>
        <dc:type
           rdf:resource="http://purl.org/dc/dcmitype/StillImage" />
        <dc:creator>
          <cc:Agent>
            <dc:title>GNOME Design Team</dc:title>
          </cc:Agent>
        </dc:creator>
        <dc:source />
        <cc:license
           rdf:resource="http://creativecommons.org/licenses/by-sa/4.0/" />
        <dc:title>Adwaita Icon Template</dc:title>
        <dc:subject>
          <rdf:Bag />
        </dc:subject>
        <dc:date />
        <dc:rights>
          <cc:Agent>
            <dc:title />
          </cc:Agent>
        </dc:rights>
        <dc:publisher>
          <cc:Agent>
            <dc:title />
          </cc:Agent>
        </dc:publisher>
        <dc:identifier />
        <dc:relation />
        <dc:language />
        <dc:coverage />
        <dc:description />
        <dc:contributor>
          <cc:Agent>
            <dc:title />
          </cc:Agent>
        </dc:contributor>
      </cc:Work>
      <cc:License
         rdf:about="http://creativecommons.org/licenses/by-sa/4.0/">
        <cc:permits
           rdf:resource="http://creativecommons.org/ns#Reproduction" />
        <cc:permits
           rdf:resource="http://creativecommons.org/ns#Distribution" />
        <cc:requires
           rdf:resource="http://creativecommons.org/ns#Notice" />
        <cc:requires
           rdf:resource="http://creativecommons.org/ns#Attribution" />
        <cc:permits
           rdf:resource="http://creativecommons.org/ns#DerivativeWorks" />
        <cc:requires
           rdf:resource="http://creativecommons.org/ns#ShareAlike" />
      </cc:License>
    </rdf:RDF>
  </metadata>
  <g
     id="layer1"
     inkscape:label="App Icon"
     inkscape:groupmode="layer"
     style="display:inline"
     transform="translate(8,-156)">
    <g
       inkscape:groupmode="layer"
       id="layer4"
       inkscape:label="template"
       style="display:inline"
       sodipodi:insensitive="true">
      <rect
         inkscape:label="0"
         y="172"
         x="9.2651362e-08"
         height="128"
         width="128"
         id="hicolor"
         style="display:inline;overflow:visible;visibility:visible;fill:#f0f0f0;fill-opacity:0;fill-rule:nonzero;stroke:none;stroke-width:0.5;marker:none;enable-background:accumulate" />
      <rect
         style="display:inline;overflow:visible;visibility:visible;fill:#f0f0f0;fill-opacity:0;fill-rule:nonzero;stroke:none;stroke-width:0.5;marker:none;enable-background:accumulate"
         id="symbolic"
         width="16"
         height="16"
         x="160"
         y="172"
         inkscape:label="0" />
    </g>
    <g
       inkscape:groupmode="layer"
       id="layer2"
       inkscape:label="baseplate"
       style="display:inline"
       sodipodi:insensitive="true">
      <rect
         style="display:inline;overflow:visible;visibility:visible;fill:#f0f0f0;fill-opacity:1;fill-rule:nonzero;stroke:none;stroke-width:0.5;marker:none;enable-background:accumulate"
         id="128"
         width="128"
         height="128"
         x="9.2651362e-08"
         y="172"
         inkscape:label="0" />
      <rect
         inkscape:label=""
         y="172"
         x="160"
         height="16"
         width="16"
         id="16"
         style="display:inline;overflow:visible;visibility:visible;fill:#f0f0f0;fill-opacity:1;fill-rule:nonzero;stroke:none;stroke-width:0.5;marker:none;enable-background:accumulate" />
      <text
         xml:space="preserve"
         style="font-style:normal;font-variant:normal;font-weight:bold;font-stretch:normal;font-size:4px;line-height:125%;font-family:Cantarell;-inkscape-font-specification:'Cantarell, Bold';text-align:start;writing-mode:lr-tb;text-anchor:start;display:inline;fill:#000000;fill-opacity:1;stroke:none;stroke-width:0.33264872;enable-background:new"
         x="0"
         y="167"
         id="text863"
         inkscape:label="icon-name"><tspan
           style="font-size:4px;stroke-width:0.33264872"
           sodipodi:role="line"
           id="tspan861"
           x="0"
           y="167">Hicolor</tspan></text>
      <text
         inkscape:label="icon-name"
         id="text867"
         y="167"
         x="160"
         style="font-style:normal;font-variant:normal;font-weight:bold;font-stretch:normal;font-size:4px;line-height:125%;font-family:Cantarell;-inkscape-font-specification:'Cantarell, Bold';text-align:start;writing-mode:lr-tb;text-anchor:start;display:inline;fill:#000000;fill-opacity:1;stroke:none;stroke-width:0.33264872;enable-background:new"
         xml:space="preserve"><tspan
           y="167"
           x="160"
           id="tspan865"
           sodipodi:role="line"
           style="font-size:4px;stroke-width:0.33264872">Symbolic</tspan></text>
    </g>
    <g
       inkscape:groupmode="layer"
       id="layer9"
       inkscape:label="icons"
       style="display:inline">
      <path
         id="rect954-3-1"
         style="display:inline;fill:url(#linearGradient8);fill-opacity:1;stroke:none;stroke-width:6;stroke-linecap:butt;stroke-linejoin:miter;stroke-miterlimit:4;stroke-dasharray:none;stroke-dashoffset:0;stroke-opacity:1;marker:none;marker-start:none;marker-mid:none;marker-end:none;paint-order:normal;enable-background:new"
         d="m 12,196 v 84 a 8,8 0 0 0 8,8 h 64 c 4.431996,0 8,-3.568 8,-8 v -76 c 0,-4.432 -3.568004,-8 -8,-8 z" />
      <path
         id="path7"
         style="display:inline;fill:#ffa348;fill-opacity:1;stroke:none;stroke-width:6;stroke-linecap:butt;stroke-linejoin:miter;stroke-miterlimit:4;stroke-dasharray:none;stroke-dashoffset:0;stroke-opacity:1;marker:none;marker-start:none;marker-mid:none;marker-end:none;paint-order:normal;enable-background:new"
         d="m 14,210 v 70 a 6,6 0 0 0 6,6 h 64 c 4.431992,0 8,-3.568 8,-8 v -60 c 0,-4.43199 -3.568008,-8 -8,-8 z" />
      <path
         id="path31"
         style="fill:#3d3846;stroke-width:2.10298;stroke-linecap:round"
         d="m 88,196 a 37,37 0 0 0 -37,37 37,37 0 0 0 37,37 37,37 0 0 0 37,-37 37,37 0 0 0 -37,-37 z m 0,29 a 8,8 0 0 1 8,8 8,8 0 0 1 -8,8 8,8 0 0 1 -8,-8 8,8 0 0 1 8,-8 z" />
      <path
         id="path33"
         style="fill:#5e5c64;stroke-width:2.10298;stroke-linecap:round"
         d="m 88,194 a 37,37 0 0 0 -37,37 37,37 0 0 0 37,37 37,37 0 0 0 37,-37 37,37 0 0 0 -37,-37 z m 0,29 a 8,8 0 0 1 8,8 8,8 0 0 1 -8,8 8,8 0 0 1 -8,-8 8,8 0 0 1 8,-8 z" />
      <path
         id="path34"
         style="fill:#241f31;stroke-width:5.50133;stroke-linecap:round"
         d="m 88,196 a 35,35 0 0 0 -35,35 35,35 0 0 0 35,35 35,35 0 0 0 35,-35 35,35 0 0 0 -35,-35 z m 0,15 a 20,20 0 0 1 20,20 20,20 0 0 1 -20,20 20,20 0 0 1 -20,-20 20,20 0 0 1 20,-20 z" />
      <path
         id="path47"
         style="fill:url(#linearGradient48);stroke-width:2.10298;stroke-linecap:round"
         d="m 61.837049,204.83705 a 37,37 0 0 0 0,52.3259 37,37 0 0 0 52.325901,0 37,37 0 0 0 0,-52.3259 37,37 0 0 0 -52.325901,0 z m 20.506098,20.5061 a 8,8 0 0 1 11.313707,0 8,8 0 0 1 -10e-7,11.3137 8,8 0 0 1 -11.313707,0 8,8 0 0 1 10e-7,-11.3137 z" />
      <path
         id="rect6"
         style="display:inline;fill:url(#linearGradient27);stroke-width:6.59637;stroke-linecap:round;enable-background:new"
         d="m 14,212 v 64 a 6,6 0 0 0 6,6 h 62 a 6,6 0 0 0 6,-6 v -58 a 6,6 0 0 0 -6,-6 z" />
      <path
         id="path41"
         style="display:inline;opacity:0.15;fill:#000000;fill-opacity:1;stroke-width:2.03199;stroke-linecap:round;enable-background:new"
         d="m 88,262 a 6,6 0 0 1 -6,6 H 14 v 4 6 a 6,6 0 0 1 6,-6 h 62 a 6,6 0 0 0 6,-6 z" />
      <path
         id="rect37"
         style="display:inline;fill:url(#linearGradient5);fill-opacity:1;stroke-width:0.506856;stroke-linecap:round;enable-background:new"
         d="m 20,192 a 8,8 0 0 0 -8,8 v 68 8 h 2 v -2 a 6,6 0 0 1 6,-6 H 54.814453 84 c 4.431988,0 8,-3.56801 8,-8 v -60 c 0,-4.43199 -3.568012,-8 -8,-8 z" />
      <path
         id="path13"
         style="display:inline;fill:url(#linearGradient42);fill-opacity:1;stroke:none;stroke-width:6;stroke-linecap:butt;stroke-linejoin:miter;stroke-miterlimit:4;stroke-dasharray:none;stroke-dashoffset:0;stroke-opacity:1;marker:none;marker-start:none;marker-mid:none;marker-end:none;paint-order:normal;enable-background:new"
         d="m 20,184 a 8,8 0 0 0 -8,8 v 68 8 a 8,8 0 0 1 8,-8 h 64 c 4.431996,0 8,-3.56801 8,-8 v -60 c 0,-4.43199 -3.568004,-8 -8,-8 z" />
      <path
         id="path32"
         style="display:inline;fill:url(#linearGradient35);stroke-width:2.03199;stroke-linecap:round;enable-background:new"
         d="m 88,270 a 6,6 0 0 1 -6,6 H 37.999997 v 2 H 82 a 6,6 0 0 0 6,-6 z" />
      <path
         id="path5"
         style="display:inline;fill:url(#linearGradient6);fill-opacity:1;stroke:none;stroke-width:6;stroke-linecap:butt;stroke-linejoin:miter;stroke-miterlimit:4;stroke-dasharray:none;stroke-dashoffset:0;stroke-opacity:1;marker:none;marker-start:none;marker-mid:none;marker-end:none;paint-order:normal;enable-background:new"
         d="m 20,190 a 8,8 0 0 0 -8,8 v 68 8 a 8,8 0 0 1 8,-8 h 64 c 4.431996,0 8,-3.56801 8,-8 v -60 c 0,-4.43199 -3.568004,-8 -8,-8 z" />
      <path
         id="path14"
         style="display:inline;fill:#c64600;stroke-width:1.41484;stroke-linecap:round;enable-background:new"
         d="m 52,210 a 8,8 0 0 0 -8,8 v 9.07422 A 8,8 0 0 0 40,226 a 8,8 0 0 0 -8,8 8,8 0 0 0 8,8 8,8 0 0 0 8,-8 v -16 a 4,4 0 0 1 4,-4 h 8 a 4,4 0 0 1 4,4 v 9.07422 A 8,8 0 0 0 60,226 a 8,8 0 0 0 -8,8 8,8 0 0 0 8,8 8,8 0 0 0 8,-8 v -16 a 8,8 0 0 0 -8,-8 z" />
      <path
         id="path10"
         style="display:inline;fill:#e66100;stroke-width:1.41484;stroke-linecap:round;enable-background:new"
         d="m 52,212 a 8,8 0 0 0 -8,8 v 9.07422 A 8,8 0 0 0 40,228 8,8 0 0 0 32.091797,235.0625 8,8 0 0 0 40,242 a 8,8 0 0 0 8,-8 v -8 -6 -2 a 4,4 0 0 1 4,-4 h 8 a 4,4 0 0 1 4,4 v 2 6 3.07422 A 8,8 0 0 0 60,228 8,8 0 0 0 52.091797,235.0625 8,8 0 0 0 60,242 a 8,8 0 0 0 8,-8 v -14 a 8,8 0 0 0 -8,-8 z m -19.853516,25.48438 a 8,8 0 0 0 0.119141,0.4414 8,8 0 0 1 -0.119141,-0.4414 z m 15.707032,0 a 8,8 0 0 1 -0.119141,0.4414 8,8 0 0 0 0.119141,-0.4414 z m 4.292968,0 a 8,8 0 0 0 0.119141,0.4414 8,8 0 0 1 -0.119141,-0.4414 z m 15.707032,0 a 8,8 0 0 1 -0.119141,0.4414 8,8 0 0 0 0.119141,-0.4414 z m -35.289063,1.42773 a 8,8 0 0 0 0.240235,0.51562 8,8 0 0 1 -0.240235,-0.51562 z m 14.871094,0 a 8,8 0 0 1 -0.240235,0.51562 8,8 0 0 0 0.240235,-0.51562 z m 20,0 a 8,8 0 0 1 -0.240235,0.51562 8,8 0 0 0 0.240235,-0.51562 z m -34.203125,1.31641 a 8,8 0 0 0 0.355469,0.50781 8,8 0 0 1 -0.355469,-0.50781 z m 13.535156,0 a 8,8 0 0 1 -0.355469,0.50781 8,8 0 0 0 0.355469,-0.50781 z m 20,0 a 8,8 0 0 1 -0.355469,0.50781 8,8 0 0 0 0.355469,-0.50781 z m -32.613281,1.19726 a 8,8 0 0 0 0.419922,0.41992 8,8 0 0 1 -0.419922,-0.41992 z m 11.691406,0 a 8,8 0 0 1 -0.419922,0.41992 8,8 0 0 0 0.419922,-0.41992 z m 8.308594,0 a 8,8 0 0 0 0.419922,0.41992 8,8 0 0 1 -0.419922,-0.41992 z m 11.691406,0 a 8,8 0 0 1 -0.419922,0.41992 8,8 0 0 0 0.419922,-0.41992 z m -30.582031,0.98633 a 8,8 0 0 0 0.507812,0.35547 8,8 0 0 1 -0.507812,-0.35547 z m 9.472656,0 a 8,8 0 0 1 -0.507812,0.35547 8,8 0 0 0 0.507812,-0.35547 z m -8.164062,0.7832 a 8,8 0 0 0 0.515625,0.24024 8,8 0 0 1 -0.515625,-0.24024 z m 1.501953,0.53907 a 8,8 0 0 0 0.441406,0.11914 8,8 0 0 1 -0.441406,-0.11914 z m 3.851562,0 a 8,8 0 0 1 -0.441406,0.11914 8,8 0 0 0 0.441406,-0.11914 z" />
      <path
         id="path1"
         style="fill:#241f31;stroke-width:0.784231;stroke-linecap:round"
         d="M 168 173 A 7 7 0 0 0 161 180 A 7 7 0 0 0 168 187 A 7 7 0 0 0 175 180 A 7 7 0 0 0 168 173 z M 168 178 A 2 2 0 0 1 170 180 A 2 2 0 0 1 168 182 A 2 2 0 0 1 166 180 A 2 2 0 0 1 168 178 z " />
    </g>
    <g
       inkscape:groupmode="layer"
       id="layer3"
       inkscape:label="grid"
       style="display:inline"
       sodipodi:insensitive="true">
      <circle
         cx="64.000031"
         cy="236"
         r="59.504131"
         id="circle2892"
         style="display:inline;opacity:0.1;vector-effect:none;fill:none;fill-opacity:1;stroke:#000000;stroke-width:0.99000001;stroke-linecap:butt;stroke-linejoin:miter;stroke-miterlimit:4;stroke-dasharray:0.99000001, 0.99000001;stroke-dashoffset:0;stroke-opacity:1;marker:none;marker-start:none;marker-mid:none;marker-end:none;paint-order:normal;enable-background:new" />
      <rect
         ry="7.9292889"
         rx="8.701004"
         y="180.49496"
         x="20.495007"
         height="111.01005"
         width="87.009987"
         id="rect2894"
         style="display:inline;opacity:0.1;vector-effect:none;fill:none;fill-opacity:1;stroke:#000000;stroke-width:0.99000001;stroke-linecap:butt;stroke-linejoin:miter;stroke-miterlimit:4;stroke-dasharray:0.99000001, 0.99000001;stroke-dashoffset:0;stroke-opacity:1;marker:none;marker-start:none;marker-mid:none;marker-end:none;paint-order:normal;enable-background:new" />
      <rect
         ry="7.9238095"
         rx="7.9238095"
         y="184.49524"
         x="12.495266"
         height="103.00952"
         width="103.00952"
         id="rect2896"
         style="display:inline;opacity:0.1;vector-effect:none;fill:none;fill-opacity:1;stroke:#000000;stroke-width:0.99000001;stroke-linecap:butt;stroke-linejoin:miter;stroke-miterlimit:4;stroke-dasharray:0.99000001, 0.99000001;stroke-dashoffset:0;stroke-opacity:1;marker:none;marker-start:none;marker-mid:none;marker-end:none;paint-order:normal;enable-background:new" />
      <rect
         ry="8.701005"
         rx="7.9292889"
         y="200.49496"
         x="8.4950066"
         height="87.010048"
         width="111.01004"
         id="rect2898"
         style="display:inline;opacity:0.1;vector-effect:none;fill:none;fill-opacity:1;stroke:#000000;stroke-width:0.99000001;stroke-linecap:butt;stroke-linejoin:miter;stroke-miterlimit:4;stroke-dasharray:0.99000001, 0.99000001;stroke-dashoffset:0;stroke-opacity:1;marker:none;marker-start:none;marker-mid:none;marker-end:none;paint-order:normal;enable-background:new" />
      <path
         inkscape:connector-curvature="0"
         id="path2900"
         d="M 2.6203015e-5,288.99999 H 128.00003"
         style="display:inline;fill:none;stroke:#62a0ea;stroke-width:2;stroke-linecap:butt;stroke-linejoin:miter;stroke-miterlimit:4;stroke-dasharray:none;stroke-opacity:1;enable-background:new" />
    </g>
  </g>
</svg>
