<?xml version="1.0" encoding="UTF-8"?>
<svg height="128px" viewBox="0 0 128 128" width="128px" xmlns="http://www.w3.org/2000/svg" xmlns:xlink="http://www.w3.org/1999/xlink">
    <linearGradient id="a" gradientUnits="userSpaceOnUse">
        <stop offset="0" stop-color="#e66100"/>
        <stop offset="0.5" stop-color="#ff7800"/>
        <stop offset="1" stop-color="#c64600"/>
    </linearGradient>
    <linearGradient id="b" x1="84" x2="92" xlink:href="#a" y1="70" y2="70"/>
    <linearGradient id="c" gradientTransform="matrix(0.707107 -0.707107 0.707107 0.707107 -137.567063 -42.11627)" gradientUnits="userSpaceOnUse" x1="51" x2="125" y1="231" y2="231">
        <stop offset="0" stop-color="#ffffff" stop-opacity="0"/>
        <stop offset="0.5" stop-color="#ffffff" stop-opacity="0.25098"/>
        <stop offset="1" stop-color="#ffffff" stop-opacity="0"/>
    </linearGradient>
    <linearGradient id="d" gradientUnits="userSpaceOnUse" x1="81.999994" x2="88.000001" y1="74.999992" y2="74.999992">
        <stop offset="0" stop-color="#f6f5f4"/>
        <stop offset="0.5" stop-color="#ffffff"/>
        <stop offset="1" stop-color="#dddcd9"/>
    </linearGradient>
    <linearGradient id="e" x1="84" x2="92" xlink:href="#a" y1="56" y2="56"/>
    <linearGradient id="f" gradientUnits="userSpaceOnUse" x1="12" x2="20" y1="54" y2="54">
        <stop offset="0" stop-color="#ff7700"/>
        <stop offset="0.5" stop-color="#ffbf70"/>
        <stop offset="1" stop-color="#ffa348"/>
    </linearGradient>
    <linearGradient id="g" gradientUnits="userSpaceOnUse" x1="37.999996" x2="88" y1="100.000008" y2="100.000008">
        <stop offset="0" stop-opacity="0"/>
        <stop offset="1" stop-opacity="0.25098"/>
    </linearGradient>
    <path d="m 12 24 v 84 c 0 4.417969 3.582031 8 8 8 h 64 c 4.433594 0 8 -3.566406 8 -8 v -76 c 0 -4.433594 -3.566406 -8 -8 -8 z m 0 0" fill="url(#b)"/>
    <path d="m 14 38 v 70 c 0 3.3125 2.6875 6 6 6 h 64 c 4.433594 0 8 -3.566406 8 -8 v -60 c 0 -4.433594 -3.566406 -8 -8 -8 z m 0 0" fill="#ffa348"/>
    <path d="m 88 24 c -20.433594 0 -37 16.566406 -37 37 s 16.566406 37 37 37 s 37 -16.566406 37 -37 s -16.566406 -37 -37 -37 z m 0 29 c 4.417969 0 8 3.582031 8 8 s -3.582031 8 -8 8 s -8 -3.582031 -8 -8 s 3.582031 -8 8 -8 z m 0 0" fill="#3d3846"/>
    <path d="m 88 22 c -20.433594 0 -37 16.566406 -37 37 s 16.566406 37 37 37 s 37 -16.566406 37 -37 s -16.566406 -37 -37 -37 z m 0 29 c 4.417969 0 8 3.582031 8 8 s -3.582031 8 -8 8 s -8 -3.582031 -8 -8 s 3.582031 -8 8 -8 z m 0 0" fill="#5e5c64"/>
    <path d="m 88 24 c -19.328125 0 -35 15.671875 -35 35 s 15.671875 35 35 35 s 35 -15.671875 35 -35 s -15.671875 -35 -35 -35 z m 0 15 c 11.046875 0 20 8.953125 20 20 s -8.953125 20 -20 20 s -20 -8.953125 -20 -20 s 8.953125 -20 20 -20 z m 0 0" fill="#241f31"/>
    <path d="m 61.835938 32.835938 c -14.449219 14.449218 -14.449219 37.878906 0 52.328124 c 14.449218 14.449219 37.878906 14.449219 52.328124 0 c 14.449219 -14.449218 14.449219 -37.878906 0 -52.328124 c -14.449218 -14.449219 -37.878906 -14.449219 -52.328124 0 z m 20.507812 20.507812 c 3.125 -3.125 8.1875 -3.125 11.3125 0 s 3.125 8.1875 0 11.3125 s -8.1875 3.125 -11.3125 0 s -3.125 -8.1875 0 -11.3125 z m 0 0" fill="url(#c)"/>
    <path d="m 14 40 v 64 c 0 3.3125 2.6875 6 6 6 h 62 c 3.3125 0 6 -2.6875 6 -6 v -58 c 0 -3.3125 -2.6875 -6 -6 -6 z m 0 0" fill="url(#d)"/>
    <path d="m 88 84 c 0 3.3125 -2.6875 6 -6 6 h -68 v 10 c 0 -3.3125 2.6875 -6 6 -6 h 62 c 3.3125 0 6 -2.6875 6 -6 z m 0 0" fill-opacity="0.14902"/>
    <path d="m 20 14 c -4.417969 0 -8 3.582031 -8 8 v 76 h 2 v -2 c 0 -3.3125 2.6875 -6 6 -6 h 64 c 4.433594 0 8 -3.566406 8 -8 v -60 c 0 -4.433594 -3.566406 -8 -8 -8 z m 0 0" fill="url(#e)"/>
    <path d="m 20 12 c -4.417969 0 -8 3.582031 -8 8 v 76 c 0 -4.417969 3.582031 -8 8 -8 h 64 c 4.433594 0 8 -3.566406 8 -8 v -60 c 0 -4.433594 -3.566406 -8 -8 -8 z m 0 0" fill="url(#f)"/>
    <path d="m 88 96 c 0 3.3125 -2.6875 6 -6 6 h -44 v 2 h 44 c 3.3125 0 6 -2.6875 6 -6 z m 0 0" fill="url(#g)"/>
    <path d="m 52 34 c -4.417969 0 -8 3.582031 -8 8 v 9.074219 c -1.214844 -0.703125 -2.59375 -1.074219 -4 -1.074219 c -4.417969 0 -8 3.582031 -8 8 s 3.582031 8 8 8 s 8 -3.582031 8 -8 v -16 c 0 -2.210938 1.789062 -4 4 -4 h 8 c 2.210938 0 4 1.789062 4 4 v 9.074219 c -1.214844 -0.703125 -2.59375 -1.074219 -4 -1.074219 c -4.417969 0 -8 3.582031 -8 8 s 3.582031 8 8 8 s 8 -3.582031 8 -8 v -16 c 0 -4.417969 -3.582031 -8 -8 -8 z m 0 0" fill="#c64600"/>
    <path d="m 52 36 c -4.417969 0 -8 3.582031 -8 8 v 9.074219 c -1.214844 -0.703125 -2.59375 -1.074219 -4 -1.074219 c -4.042969 0.019531 -7.433594 3.046875 -7.90625 7.0625 c 0.527344 3.964844 3.90625 6.925781 7.90625 6.9375 c 4.417969 0 8 -3.582031 8 -8 v -16 c 0 -2.210938 1.789062 -4 4 -4 h 8 c 2.210938 0 4 1.789062 4 4 v 11.074219 c -1.214844 -0.703125 -2.59375 -1.074219 -4 -1.074219 c -4.042969 0.019531 -7.433594 3.046875 -7.90625 7.0625 c 0.527344 3.964844 3.90625 6.925781 7.90625 6.9375 c 4.417969 0 8 -3.582031 8 -8 v -14 c 0 -4.417969 -3.582031 -8 -8 -8 z m -19.855469 25.484375 c 0.039063 0.148437 0.078125 0.296875 0.121094 0.441406 c -0.042969 -0.144531 -0.082031 -0.292969 -0.121094 -0.441406 z m 15.710938 0 c -0.039063 0.148437 -0.078125 0.296875 -0.121094 0.441406 c 0.042969 -0.144531 0.082031 -0.292969 0.121094 -0.441406 z m 4.289062 0 c 0.039063 0.148437 0.078125 0.296875 0.121094 0.441406 c -0.042969 -0.144531 -0.082031 -0.292969 -0.121094 -0.441406 z m 15.710938 0 c -0.039063 0.148437 -0.078125 0.296875 -0.121094 0.441406 c 0.042969 -0.144531 0.082031 -0.292969 0.121094 -0.441406 z m -35.292969 1.429687 c 0.074219 0.171876 0.15625 0.34375 0.242188 0.511719 c -0.085938 -0.167969 -0.167969 -0.339843 -0.242188 -0.511719 z m 14.875 0 c -0.074219 0.171876 -0.15625 0.34375 -0.242188 0.511719 c 0.085938 -0.167969 0.167969 -0.339843 0.242188 -0.511719 z m 20 0 c -0.074219 0.171876 -0.15625 0.34375 -0.242188 0.511719 c 0.085938 -0.167969 0.167969 -0.339843 0.242188 -0.511719 z m -34.203125 1.316407 c 0.109375 0.171875 0.226563 0.339843 0.355469 0.507812 c -0.128906 -0.167969 -0.246094 -0.335937 -0.355469 -0.507812 z m 13.53125 0 c -0.109375 0.171875 -0.226563 0.339843 -0.355469 0.507812 c 0.128906 -0.167969 0.246094 -0.335937 0.355469 -0.507812 z m 20 0 c -0.109375 0.171875 -0.226563 0.339843 -0.355469 0.507812 c 0.128906 -0.167969 0.246094 -0.335937 0.355469 -0.507812 z m -32.609375 1.195312 c 0.132812 0.144531 0.273438 0.285157 0.417969 0.417969 c -0.144531 -0.132812 -0.285157 -0.273438 -0.417969 -0.417969 z m 11.6875 0 c -0.132812 0.144531 -0.273438 0.285157 -0.417969 0.417969 c 0.144531 -0.132812 0.285157 -0.273438 0.417969 -0.417969 z m 8.3125 0 c 0.132812 0.144531 0.273438 0.285157 0.417969 0.417969 c -0.144531 -0.132812 -0.285157 -0.273438 -0.417969 -0.417969 z m 11.6875 0 c -0.132812 0.144531 -0.273438 0.285157 -0.417969 0.417969 c 0.144531 -0.132812 0.285157 -0.273438 0.417969 -0.417969 z m -30.578125 0.988281 c 0.164063 0.125 0.332031 0.242188 0.503906 0.355469 c -0.171875 -0.113281 -0.339843 -0.230469 -0.503906 -0.355469 z m 9.46875 0 c -0.164063 0.125 -0.332031 0.242188 -0.503906 0.355469 c 0.171875 -0.113281 0.339843 -0.230469 0.503906 -0.355469 z m -8.160156 0.78125 c 0.167969 0.085938 0.339843 0.167969 0.515625 0.242188 c -0.175782 -0.074219 -0.347656 -0.15625 -0.515625 -0.242188 z m 1.5 0.539063 c 0.144531 0.042969 0.292969 0.082031 0.441406 0.121094 c -0.148437 -0.039063 -0.296875 -0.078125 -0.441406 -0.121094 z m 3.851562 0 c -0.144531 0.042969 -0.292969 0.082031 -0.441406 0.121094 c 0.148437 -0.039063 0.296875 -0.078125 0.441406 -0.121094 z m 0 0" fill="#e66100"/>
</svg>
