<?xml version="1.0" encoding="UTF-8" standalone="no"?>
<svg
   height="128px"
   viewBox="0 0 128 128"
   width="128px"
   version="1.1"
   id="svg26"
   sodipodi:docname="de.wagnermartin.Plattenalbum.svg"
   inkscape:version="1.4.2 (ebf0e940d0, 2025-05-08)"
   xmlns:inkscape="http://www.inkscape.org/namespaces/inkscape"
   xmlns:sodipodi="http://sodipodi.sourceforge.net/DTD/sodipodi-0.dtd"
   xmlns:xlink="http://www.w3.org/1999/xlink"
   xmlns="http://www.w3.org/2000/svg"
   xmlns:svg="http://www.w3.org/2000/svg">
  <defs
     id="defs26">
    <linearGradient
       id="linearGradient28"
       gradientUnits="userSpaceOnUse">
      <stop
         offset="0"
         stop-color="#e66100"
         id="stop26" />
      <stop
         offset="0.5"
         stop-color="#ff7800"
         id="stop27"
         style="stop-color:#a2ff00;stop-opacity:1;" />
      <stop
         offset="1"
         stop-color="#c64600"
         id="stop28" />
    </linearGradient>
  </defs>
  <sodipodi:namedview
     id="namedview26"
     pagecolor="#ffffff"
     bordercolor="#666666"
     borderopacity="1.0"
     inkscape:showpageshadow="2"
     inkscape:pageopacity="0.0"
     inkscape:pagecheckerboard="0"
     inkscape:deskcolor="#d1d1d1"
     inkscape:zoom="6.109375"
     inkscape:cx="64"
     inkscape:cy="147.1509"
     inkscape:window-width="1920"
     inkscape:window-height="1006"
     inkscape:window-x="0"
     inkscape:window-y="0"
     inkscape:window-maximized="1"
     inkscape:current-layer="svg26" />
  <linearGradient
     id="a"
     gradientUnits="userSpaceOnUse">
    <stop
       offset="0"
       stop-color="#e66100"
       id="stop1" />
    <stop
       offset="0.5"
       stop-color="#ff7800"
       id="stop2" />
    <stop
       offset="1"
       stop-color="#c64600"
       id="stop3" />
  </linearGradient>
  <linearGradient
     id="b"
     x1="84"
     x2="92"
     xlink:href="#linearGradient28"
     y1="70"
     y2="70" />
  <linearGradient
     id="c"
     gradientTransform="matrix(0.707107 -0.707107 0.707107 0.707107 -137.567063 -42.11627)"
     gradientUnits="userSpaceOnUse"
     x1="51"
     x2="125"
     y1="231"
     y2="231">
    <stop
       offset="0"
       stop-color="#ffffff"
       stop-opacity="0"
       id="stop4" />
    <stop
       offset="0.5"
       stop-color="#ffffff"
       stop-opacity="0.25098"
       id="stop5"
       style="stop-color:#e3e3e3;stop-opacity:0.88678944;" />
    <stop
       offset="1"
       stop-color="#ffffff"
       stop-opacity="0"
       id="stop6" />
  </linearGradient>
  <linearGradient
     id="d"
     gradientUnits="userSpaceOnUse"
     x1="81.999994"
     x2="88.000001"
     y1="74.999992"
     y2="74.999992">
    <stop
       offset="0"
       stop-color="#f6f5f4"
       id="stop7" />
    <stop
       offset="0.5"
       stop-color="#ffffff"
       id="stop8" />
    <stop
       offset="1"
       stop-color="#dddcd9"
       id="stop9" />
  </linearGradient>
  <linearGradient
     id="e"
     x1="84"
     x2="92"
     xlink:href="#a"
     y1="56"
     y2="56" />
  <linearGradient
     id="f"
     gradientUnits="userSpaceOnUse"
     x1="12"
     x2="20"
     y1="54"
     y2="54">
    <stop
       offset="0"
       stop-color="#ff7700"
       id="stop10"
       style="stop-color:#29af00;stop-opacity:1;" />
    <stop
       offset="0.50025272"
       stop-color="#ffbf70"
       id="stop11"
       style="stop-color:#b0ff3f;stop-opacity:1;" />
    <stop
       offset="1"
       stop-color="#ffa348"
       id="stop12"
       style="stop-color:#d8e583;stop-opacity:1;" />
  </linearGradient>
  <linearGradient
     id="g"
     gradientUnits="userSpaceOnUse"
     x1="37.999996"
     x2="88"
     y1="100.000008"
     y2="100.000008">
    <stop
       offset="0"
       stop-opacity="0"
       id="stop13" />
    <stop
       offset="1"
       stop-opacity="0.25098"
       id="stop14" />
  </linearGradient>
  <path
     d="m 12 24 v 84 c 0 4.417969 3.582031 8 8 8 h 64 c 4.433594 0 8 -3.566406 8 -8 v -76 c 0 -4.433594 -3.566406 -8 -8 -8 z m 0 0"
     fill="url(#b)"
     id="path14" />
  <path
     d="m 14 38 v 70 c 0 3.3125 2.6875 6 6 6 h 64 c 4.433594 0 8 -3.566406 8 -8 v -60 c 0 -4.433594 -3.566406 -8 -8 -8 z m 0 0"
     fill="#ffa348"
     id="path15"
     style="fill:#d2be00;fill-opacity:1" />
  <path
     d="m 88 24 c -20.433594 0 -37 16.566406 -37 37 s 16.566406 37 37 37 s 37 -16.566406 37 -37 s -16.566406 -37 -37 -37 z m 0 29 c 4.417969 0 8 3.582031 8 8 s -3.582031 8 -8 8 s -8 -3.582031 -8 -8 s 3.582031 -8 8 -8 z m 0 0"
     fill="#3d3846"
     id="path16" />
  <path
     d="m 88 22 c -20.433594 0 -37 16.566406 -37 37 s 16.566406 37 37 37 s 37 -16.566406 37 -37 s -16.566406 -37 -37 -37 z m 0 29 c 4.417969 0 8 3.582031 8 8 s -3.582031 8 -8 8 s -8 -3.582031 -8 -8 s 3.582031 -8 8 -8 z m 0 0"
     fill="#5e5c64"
     id="path17" />
  <path
     d="m 88 24 c -19.328125 0 -35 15.671875 -35 35 s 15.671875 35 35 35 s 35 -15.671875 35 -35 s -15.671875 -35 -35 -35 z m 0 15 c 11.046875 0 20 8.953125 20 20 s -8.953125 20 -20 20 s -20 -8.953125 -20 -20 s 8.953125 -20 20 -20 z m 0 0"
     fill="#241f31"
     id="path18" />
  <path
     d="m 61.835938 32.835938 c -14.449219 14.449218 -14.449219 37.878906 0 52.328124 c 14.449218 14.449219 37.878906 14.449219 52.328124 0 c 14.449219 -14.449218 14.449219 -37.878906 0 -52.328124 c -14.449218 -14.449219 -37.878906 -14.449219 -52.328124 0 z m 20.507812 20.507812 c 3.125 -3.125 8.1875 -3.125 11.3125 0 s 3.125 8.1875 0 11.3125 s -8.1875 3.125 -11.3125 0 s -3.125 -8.1875 0 -11.3125 z m 0 0"
     fill="url(#c)"
     id="path19" />
  <path
     d="m 14 40 v 64 c 0 3.3125 2.6875 6 6 6 h 62 c 3.3125 0 6 -2.6875 6 -6 v -58 c 0 -3.3125 -2.6875 -6 -6 -6 z m 0 0"
     fill="url(#d)"
     id="path20" />
  <path
     d="m 88 84 c 0 3.3125 -2.6875 6 -6 6 h -68 v 10 c 0 -3.3125 2.6875 -6 6 -6 h 62 c 3.3125 0 6 -2.6875 6 -6 z m 0 0"
     fill-opacity="0.14902"
     id="path21" />
  <path
     d="m 20 14 c -4.417969 0 -8 3.582031 -8 8 v 76 h 2 v -2 c 0 -3.3125 2.6875 -6 6 -6 h 64 c 4.433594 0 8 -3.566406 8 -8 v -60 c 0 -4.433594 -3.566406 -8 -8 -8 z m 0 0"
     fill="url(#e)"
     id="path22" />
  <path
     d="m 20 12 c -4.417969 0 -8 3.582031 -8 8 v 76 c 0 -4.417969 3.582031 -8 8 -8 h 64 c 4.433594 0 8 -3.566406 8 -8 v -60 c 0 -4.433594 -3.566406 -8 -8 -8 z m 0 0"
     fill="url(#f)"
     id="path23" />
  <path
     d="m 88 96 c 0 3.3125 -2.6875 6 -6 6 h -44 v 2 h 44 c 3.3125 0 6 -2.6875 6 -6 z m 0 0"
     fill="url(#g)"
     id="path24" />
  <path
     d="m 52 34 c -4.417969 0 -8 3.582031 -8 8 v 9.074219 c -1.214844 -0.703125 -2.59375 -1.074219 -4 -1.074219 c -4.417969 0 -8 3.582031 -8 8 s 3.582031 8 8 8 s 8 -3.582031 8 -8 v -16 c 0 -2.210938 1.789062 -4 4 -4 h 8 c 2.210938 0 4 1.789062 4 4 v 9.074219 c -1.214844 -0.703125 -2.59375 -1.074219 -4 -1.074219 c -4.417969 0 -8 3.582031 -8 8 s 3.582031 8 8 8 s 8 -3.582031 8 -8 v -16 c 0 -4.417969 -3.582031 -8 -8 -8 z m 0 0"
     fill="#c64600"
     id="path25"
     style="fill:#1c8700;fill-opacity:1" />
  <path
     d="m 51.982193,34.035806 c -4.377689,0 -7.927062,3.434787 -7.927062,7.671149 v 8.70121 c -1.203768,-0.674221 -2.570102,-1.030061 -3.963531,-1.030061 -4.006108,0.01872 -7.36582,2.921628 -7.834167,6.772186 0.522536,3.801864 3.870636,6.641088 7.834167,6.652325 4.377689,0 7.927062,-3.434787 7.927062,-7.671149 V 39.789168 c 0,-2.120054 1.772751,-3.835574 3.963531,-3.835574 h 7.927062 c 2.190781,0 3.963531,1.71552 3.963531,3.835574 v 10.618997 c -1.203768,-0.674221 -2.570102,-1.030061 -3.963531,-1.030061 -4.006108,0.01872 -7.36582,2.921628 -7.834167,6.772186 0.522536,3.801864 3.870636,6.641088 7.834167,6.652325 4.377689,0 7.927062,-3.434787 7.927062,-7.671149 V 41.706955 c 0,-4.236362 -3.549373,-7.671149 -7.927062,-7.671149 z M 32.307751,58.47261 c 0.03871,0.142336 0.07741,0.284672 0.11999,0.423262 -0.04258,-0.13859 -0.08128,-0.280926 -0.11999,-0.423262 z m 15.567698,0 c -0.03871,0.142336 -0.07741,0.284672 -0.11999,0.423262 0.04258,-0.13859 0.08128,-0.280926 0.11999,-0.423262 z m 4.249957,0 c 0.03871,0.142336 0.07741,0.284672 0.11999,0.423262 -0.04258,-0.13859 -0.08128,-0.280926 -0.11999,-0.423262 z m 15.567698,0 c -0.03871,0.142336 -0.07741,0.284672 -0.11999,0.423262 0.04258,-0.13859 0.08128,-0.280926 0.11999,-0.423262 z m -34.971195,1.370919 c 0.07354,0.164811 0.154826,0.329619 0.23998,0.490684 -0.08515,-0.161065 -0.166437,-0.325873 -0.23998,-0.490684 z m 14.739381,0 c -0.07354,0.164811 -0.154825,0.329619 -0.239979,0.490684 0.08515,-0.161065 0.166437,-0.325873 0.239979,-0.490684 z m 19.817656,0 c -0.07354,0.164811 -0.154826,0.329619 -0.23998,0.490684 0.08515,-0.161065 0.166437,-0.325873 0.23998,-0.490684 z m -33.891287,1.262294 c 0.108377,0.164809 0.224497,0.325873 0.352228,0.486937 -0.127731,-0.161064 -0.243851,-0.322128 -0.352228,-0.486937 z m 13.407882,0 c -0.108378,0.164809 -0.224497,0.325873 -0.352228,0.486937 0.127731,-0.161064 0.24385,-0.322128 0.352228,-0.486937 z m 19.817655,0 c -0.108377,0.164809 -0.224497,0.325873 -0.352228,0.486937 0.127731,-0.161064 0.243851,-0.322128 0.352228,-0.486937 z m -32.312067,1.146176 c 0.131601,0.138591 0.270945,0.273436 0.414158,0.400789 -0.143213,-0.127353 -0.282557,-0.262198 -0.414158,-0.400789 z m 11.580942,0 c -0.131601,0.138591 -0.270945,0.273436 -0.414158,0.400789 0.143213,-0.127353 0.282557,-0.262198 0.414158,-0.400789 z m 8.236713,0 c 0.131601,0.138591 0.270945,0.273436 0.414158,0.400789 -0.143213,-0.127353 -0.282557,-0.262198 -0.414158,-0.400789 z m 11.580942,0 c -0.131601,0.138591 -0.270945,0.273436 -0.414158,0.400789 0.143213,-0.127353 0.282557,-0.262198 0.414158,-0.400789 z m -30.299337,0.947657 c 0.162567,0.119861 0.329004,0.232233 0.499312,0.340857 -0.170308,-0.108624 -0.336745,-0.220996 -0.499312,-0.340857 z m 9.382421,0 c -0.162567,0.119861 -0.329003,0.232233 -0.499311,0.340857 0.170308,-0.108624 0.336744,-0.220996 0.499311,-0.340857 z m -8.085757,0.749136 c 0.166437,0.08241 0.336744,0.161064 0.510923,0.232232 -0.174179,-0.07116 -0.344486,-0.149827 -0.510923,-0.232232 z m 1.486324,0.516904 c 0.143213,0.0412 0.290298,0.07866 0.437381,0.116117 -0.147083,-0.03746 -0.294168,-0.07492 -0.437381,-0.116117 z m 3.816446,0 c -0.143213,0.0412 -0.290298,0.07866 -0.437382,0.116117 0.147084,-0.03746 0.294169,-0.07492 0.437382,-0.116117 z m 0,0"
     fill="#e66100"
     id="path26"
     style="fill:#00e672;fill-opacity:1;stroke-width:0.974757" />
</svg>
