<?xml version="1.0" encoding="UTF-8"?>
<svg height="16px" viewBox="0 0 16 16" width="16px" xmlns="http://www.w3.org/2000/svg">
 <path d="m2 2a1 1 0 0 0-1 1v5a1 1 0 0 0 1 1 1 1 0 0 0 0.5-0.13477l4.3301-2.5a1 1 0 0 0 0.36719-1.3652 1 1 0 0 0-0.25781-0.29297 1 1 0 0 0-0.10938-0.074219l-4.3301-2.5a1 1 0 0 0-0.5-0.13281zm7 0a1 1 0 0 0-1 1 1 1 0 0 0 1 1h5a1 1 0 0 0 1-1 1 1 0 0 0-1-1zm0 5a1 1 0 0 0-1 1 1 1 0 0 0 1 1h5a1 1 0 0 0 1-1 1 1 0 0 0-1-1zm-7 5a1 1 0 0 0-1 1 1 1 0 0 0 1 1h12a1 1 0 0 0 1-1 1 1 0 0 0-1-1z" fill="#241f31"/>
</svg>
