<?xml version="1.0" encoding="UTF-8"?>
<svg width="16" height="16" version="1.1" xmlns="http://www.w3.org/2000/svg" xmlns:cc="http://creativecommons.org/ns#" xmlns:dc="http://purl.org/dc/elements/1.1/" xmlns:rdf="http://www.w3.org/1999/02/22-rdf-syntax-ns#">
 <metadata>
  <rdf:RDF>
   <cc:Work rdf:about="">
    <dc:format>image/svg+xml</dc:format>
    <dc:type rdf:resource="http://purl.org/dc/dcmitype/StillImage"/>
    <dc:title/>
   </cc:Work>
  </rdf:RDF>
 </metadata>
 <g transform="matrix(.99993 0 0 1.0004 .00013668 -.00035566)" fill="#2e3436">
  <path d="m3.6705 9.0306c0.97033-0.18408 1.9154 0.48139 2.1185 1.4938l0.45669 2.2808c0.2031 1.0124-0.41684 1.975-1.3872 2.159-0.97143 0.18498-1.9164-0.48148-2.1185-1.4938l-0.45669-2.2808c-0.2032-1.0114 0.41584-1.9751 1.3872-2.159z"/>
  <path d="m7.9694 3c-3.306 0-6.024 3.008-5.969 5.719 0.048 2.365 0.809 4.695 1 5.281h1.526c-1.162-2.292-1.05-5.156-1.05-5.156 0-2.373 2.007-4.313 4.493-4.313 2.485 0 4.5 1.827 4.492 4.282-0.024 1.674-0.172 2.658-1.006 5.187h1.571c0.225-0.645 0.974-3.19 0.974-5.281 0-2.83-2.726-5.719-6.031-5.719z"/>
  <path d="m2.2627 1s-1.0354 2.3374 1.005 4.8454l2.1933-1.0316c-2.9707-1.2679-3.1983-3.8138-3.1983-3.8138z"/>
  <path d="m13.737 1s1.0354 2.3374-1.005 4.8454l-2.1933-1.0316c2.9707-1.2679 3.1983-3.8138 3.1983-3.8138z"/>
  <path d="m12.359 9.0306c-0.97034-0.18408-1.9154 0.48139-2.1185 1.4938l-0.45669 2.2808c-0.2031 1.0124 0.41684 1.975 1.3872 2.159 0.97143 0.18498 1.9164-0.48148 2.1185-1.4938l0.45669-2.2808c0.2032-1.0114-0.41584-1.9751-1.3872-2.159z"/>
 </g>
</svg>
