<?xml version="1.0" encoding="UTF-8"?>
<svg width="16px" height="16px" version="1.1" viewBox="0 0 16 16" xmlns="http://www.w3.org/2000/svg">
 <g fill="#2e3436">
  <path d="M 3,1 A 3,3 0 0 1 5.117188,1.8828125 L 3,4 5.117188,6.117188 A 3,3 0 0 1 3,7 3,3 0 0 1 0,4 3,3 0 0 1 3,1 Z" stroke-linecap="round" stroke-width=".78708"/>
  <path d="m12 1v2h-6v2h6v2h1v-0.0078125c0.26562 0.0039 0.51953-0.10156 0.70703-0.28516l2-2c0.39062-0.39062 0.39062-1.0234 0-1.4141l-2-2c-0.1875-0.1836-0.44141-0.28906-0.70703-0.28516v-0.0078125h-1z"/>
  <path d="m12 9v2h-6-1-5v2h5 1 6v2h1v-0.007812c0.26562 0.003899 0.51953-0.10156 0.70703-0.28516l2-2c0.39062-0.39062 0.39062-1.0234 0-1.4141l-2-2c-0.1875-0.18361-0.44141-0.28906-0.70703-0.28516v-0.0078125h-1z"/>
 </g>
</svg>
