<?xml version="1.0" encoding="UTF-8"?>
<svg width="16" height="16" version="1.1" viewBox="0 0 4.2333 4.2333" xmlns="http://www.w3.org/2000/svg" xmlns:cc="http://creativecommons.org/ns#" xmlns:dc="http://purl.org/dc/elements/1.1/" xmlns:rdf="http://www.w3.org/1999/02/22-rdf-syntax-ns#">
 <metadata>
  <rdf:RDF>
   <cc:Work rdf:about="">
    <dc:format>image/svg+xml</dc:format>
    <dc:type rdf:resource="http://purl.org/dc/dcmitype/StillImage"/>
    <dc:title/>
   </cc:Work>
  </rdf:RDF>
 </metadata>
 <path transform="scale(.26458)" d="m8.4023 2a6 6 0 0 0-6 6 6 6 0 0 0 6 6 6 6 0 0 0 5.1953-3l-5.1953-3 5.1953-3a6 6 0 0 0-5.1953-3zm0.55859 2a1 1 0 0 1 0.53906 0.13477 1 1 0 0 1 0.36523 1.3652 1 1 0 0 1-1.3652 0.36523 1 1 0 0 1-0.36523-1.3652 1 1 0 0 1 0.82617-0.5z" fill="#2e3436" stroke-linecap="round" stroke-width=".9522"/>
</svg>
