<?xml version="1.0" encoding="UTF-8"?>
<svg width="16px" height="16px" version="1.1" viewBox="0 0 16 16" xmlns="http://www.w3.org/2000/svg">
 <g fill="#2e3436">
  <path d="m12 1v2h-3.3164-3.6836-5v2h5 3.6836 3.3164v2h1v-0.0078125c0.26562 0.0039 0.51953-0.10156 0.70703-0.28516l2-2c0.39062-0.39062 0.39062-1.0234 0-1.4141l-2-2c-0.1875-0.1836-0.44141-0.28906-0.70703-0.28516v-0.0078125h-1z"/>
  <path d="m6 9a1 1 0 0 0-1 1v4a1 1 0 0 0 1 1h4a1 1 0 0 0 1-1v-4a1 1 0 0 0-1-1z" stroke-linecap="round" stroke-width="2.3012"/>
 </g>
</svg>
